<svg width="119" height="119" viewBox="0 0 119 119" fill="none" xmlns="http://www.w3.org/2000/svg">
<path fill-rule="evenodd" clip-rule="evenodd" d="M4.94975 54.5503C2.21608 57.2839 2.21608 61.7161 4.94975 64.4497L54.5503 114.05C57.2839 116.784 61.7161 116.784 64.4497 114.05L114.05 64.4497C116.784 61.7161 116.784 57.2839 114.05 54.5503L64.4497 4.94975C61.7161 2.21608 57.2839 2.21608 54.5503 4.94975L4.94975 54.5503ZM13.0555 55.9645C11.1029 57.9171 11.1029 61.0829 13.0555 63.0356L55.9645 105.944C57.9171 107.897 61.0829 107.897 63.0355 105.944L105.944 63.0356C107.897 61.0829 107.897 57.9171 105.944 55.9645L63.0355 13.0556C61.0829 11.1029 57.9171 11.1029 55.9645 13.0556L13.0555 55.9645Z" fill="#8AD8BD"/>
<path d="M58.9351 36.4455C59.32 35.7788 60.2823 35.7788 60.6672 36.4455L80.4607 70.7288C80.8456 71.3955 80.3644 72.2288 79.5946 72.2288H40.0076C39.2378 72.2288 38.7567 71.3955 39.1416 70.7288L58.9351 36.4455Z" fill="#8AD8BD"/>
<path d="M59.1101 52.956C59.495 52.2893 60.4572 52.2893 60.8421 52.956L73.9503 75.66C74.3352 76.3267 73.854 77.16 73.0842 77.16H46.8679C46.0981 77.16 45.617 76.3267 46.0019 75.66L59.1101 52.956Z" fill="white"/>
</svg>
